<svg width="50" height="51" viewBox="0 0 50 51" fill="none" xmlns="http://www.w3.org/2000/svg">
<g clip-path="url(#clip0_433_134)">
<path d="M2.86569 50.8966C2.7152 50.896 2.57019 50.833 2.45845 50.7198C2.34671 50.6065 2.2761 50.4508 2.26014 50.2827L0.00087529 24.5411L-0.000976562 24.4766C-0.000976562 24.0978 0.271246 23.7919 0.608283 23.7919H15.8546V50.8987L2.86569 50.8966ZM9.08792 44.1017C9.08792 44.6372 9.22922 45.1628 9.49395 45.608C9.75868 46.0533 10.135 46.4003 10.5752 46.6052C11.0154 46.8102 11.4998 46.8638 11.9672 46.7593C12.4346 46.6548 12.8638 46.397 13.2008 46.0183C13.5377 45.6396 13.7672 45.1572 13.8601 44.632C13.9531 44.1068 13.9054 43.5624 13.723 43.0676C13.5407 42.5729 13.2319 42.15 12.8357 41.8525C12.4395 41.555 11.9737 41.3962 11.4972 41.3962H11.4935C10.162 41.3962 9.08421 42.6074 9.08236 44.1038L9.08792 44.1017ZM9.97681 27.4526C9.97681 27.8293 10.249 28.1352 10.5861 28.1352H12.0009C12.162 28.1352 12.3165 28.0633 12.4304 27.9353C12.5443 27.8073 12.6083 27.6337 12.6083 27.4526C12.6083 27.2716 12.5443 27.098 12.4304 26.9699C12.3165 26.8419 12.162 26.77 12.0009 26.77H10.575C10.4134 26.77 10.2584 26.8422 10.1441 26.9706C10.0299 27.099 9.96569 27.2731 9.96569 27.4547V27.461L9.97681 27.4526ZM3.29162 27.4526C3.29162 27.8293 3.56384 28.1352 3.89903 28.1352H8.53792C8.69901 28.1352 8.85351 28.0633 8.96742 27.9353C9.08133 27.8073 9.14532 27.6337 9.14532 27.4526C9.14532 27.2716 9.08133 27.098 8.96742 26.9699C8.85351 26.8419 8.69901 26.77 8.53792 26.77H3.88791C3.72682 26.77 3.57232 26.8419 3.45841 26.9699C3.3445 27.098 3.28051 27.2716 3.28051 27.4526V27.4589L3.29162 27.4526ZM21.4398 46.9903C21.1134 46.8665 20.8051 46.689 20.525 46.4638L20.5361 46.4721L20.3509 46.341C19.9195 46.0369 19.4935 45.7233 19.0731 45.4003L18.8861 45.2526C18.6416 45.0549 18.5268 44.9674 18.4009 44.9758C17.9564 44.9862 17.512 44.9903 17.0675 44.9966V25.9438L17.0435 24.3413C17.8787 23.744 18.649 23.1759 18.8805 22.9595C19.1953 22.2477 19.5064 21.6525 19.8509 21.0823L19.8194 21.1385C19.9768 20.8617 20.1342 20.587 20.2787 20.3143L23.4713 14.2915C23.6194 14.0085 23.7805 13.7255 23.9416 13.4424C24.2101 12.9929 24.4953 12.456 24.7564 11.9024L24.8009 11.8004C24.9472 11.4643 24.9982 11.0859 24.9472 10.7162L24.949 10.7266L24.9379 4.23342C25.0546 3.28859 25.5287 2.48943 26.1972 2.00245L26.2083 1.99412C26.8043 1.39085 27.5606 1.02513 28.3601 0.953558H28.3731L28.4898 0.951477C29.1213 0.951477 29.7176 1.12005 30.2472 1.41765L30.225 1.40516C30.5787 1.59663 30.8805 1.80058 31.1638 2.0295L31.1453 2.01494L31.3416 2.16062C31.7879 2.42492 32.1213 2.87028 32.2694 3.4093L32.2731 3.42386C32.6194 4.87233 32.9361 6.18969 33.2305 7.51121L33.3527 8.05022C33.5398 8.75781 33.7009 9.61315 33.8046 10.4893L33.8139 10.5767C33.4972 13.8524 32.8879 16.8409 32.0064 19.6879L32.0842 19.4007L46.3305 19.3778H46.3824C46.814 19.3779 47.2406 19.4811 47.634 19.6807C48.0273 19.8802 48.3784 20.1716 48.6639 20.5353C48.9494 20.899 49.1627 21.3269 49.2898 21.7904C49.4169 22.2539 49.4547 22.7425 49.4009 23.2238L49.4027 23.2071C49.4426 23.9342 49.3104 24.6602 49.0196 25.3112C48.7288 25.9622 48.2898 26.5151 47.7472 26.9136L47.7324 26.924C48.2521 27.7779 48.4952 28.8064 48.4213 29.8376V29.823C48.4861 30.6402 48.3168 31.4592 47.938 32.1605C47.5592 32.8618 46.9907 33.4086 46.3157 33.721L46.2935 33.7293C46.7077 34.5592 46.9 35.5059 46.8472 36.4556V36.4431C46.8875 37.1545 46.7564 37.865 46.4676 38.4997C46.1789 39.1344 45.7432 39.6699 45.2064 40.0497L45.1916 40.0601C45.5699 41.0121 45.7132 42.0609 45.6065 43.0965L45.6083 43.0695V43.4607C45.5818 43.9733 45.4635 44.4746 45.2605 44.9346C45.0575 45.3946 44.7741 45.8038 44.4271 46.1379C44.0801 46.4719 43.6767 46.7238 43.241 46.8784C42.8054 47.0331 42.3464 47.0875 41.8916 47.0382L41.9046 47.0403H33.7027L33.675 47.0423L33.6453 47.0403H33.6472H22.7027C22.6083 47.0403 22.5101 47.0403 22.4064 47.0569C22.2805 47.0652 22.1472 47.0777 22.0101 47.0777H21.9824C21.7953 47.0779 21.6091 47.0499 21.4287 46.9945L21.4435 46.9986L21.4398 46.9903ZM10.3009 44.1038C10.301 43.9287 10.3318 43.7554 10.3915 43.5937C10.4512 43.4321 10.5387 43.2852 10.6489 43.1615C10.7592 43.0378 10.89 42.9398 11.0339 42.8729C11.1779 42.8061 11.3322 42.7717 11.4879 42.7718C11.6437 42.772 11.7979 42.8066 11.9418 42.8737C12.0856 42.9408 12.2163 43.0391 12.3264 43.163C12.4364 43.2869 12.5237 43.4339 12.5832 43.5957C12.6427 43.7574 12.6732 43.9308 12.6731 44.1059C12.6729 44.4594 12.5477 44.7983 12.325 45.0481C12.1024 45.2979 11.8006 45.4381 11.4861 45.4378C11.1715 45.4375 10.8699 45.2968 10.6476 45.0466C10.4254 44.7965 10.3006 44.4573 10.3009 44.1038Z" fill="black"/>
</g>
<defs>
<clipPath id="clip0_433_134">
<rect width="50" height="49.9472" fill="white" transform="translate(0 0.95047)"/>
</clipPath>
</defs>
</svg>
