<svg width="50" height="51" viewBox="0 0 50 51" fill="none" xmlns="http://www.w3.org/2000/svg">
<g clip-path="url(#clip0_433_140)">
<path d="M19.1756 50.3206C18.8472 50.1453 18.5336 49.9371 18.2385 49.6984L18.257 49.713L18.0607 49.5652C17.8407 49.4363 17.6455 49.2598 17.4863 49.0458C17.3271 48.8319 17.207 48.5848 17.133 48.3186L17.1293 48.304C16.799 46.9447 16.4792 45.5822 16.17 44.2167L16.0478 43.6777C15.8422 42.8794 15.6911 42.0647 15.5959 41.2407L15.5867 41.1512C15.9052 37.8755 16.5144 34.8849 17.3941 32.04L17.3163 32.3272L3.07185 32.3521H3.02185C2.5904 32.3523 2.16385 32.2494 1.77048 32.0502C1.3771 31.851 1.02589 31.5602 0.740116 31.1969C0.454345 30.8336 0.240543 30.4063 0.112882 29.9431C-0.0147784 29.4799 -0.0533815 28.9916 -0.000368389 28.5104L-0.00222024 28.527C-0.0426364 27.798 0.0898384 27.07 0.381675 26.4174C0.673512 25.7647 1.11425 25.2108 1.65889 24.8122L1.67371 24.8018C1.15524 23.9465 0.912796 22.9177 0.986669 21.8861V21.9007C0.921749 21.0846 1.09069 20.2666 1.46883 19.5661C1.84697 18.8655 2.41449 18.3192 3.08852 18.0069L3.11074 17.9986C2.69779 17.1674 2.50622 16.2203 2.55889 15.2702V15.2827C2.51772 14.5708 2.64824 13.8596 2.93668 13.2241C3.22513 12.5887 3.6608 12.0524 4.19778 11.6719L4.2126 11.6615C3.83256 10.708 3.68922 9.6566 3.79778 8.61891L3.79593 8.64597V8.26096C3.82247 7.74837 3.94076 7.24708 4.14373 6.78707C4.34669 6.32707 4.63016 5.91781 4.97716 5.58381C5.32417 5.2498 5.72757 4.99791 6.16322 4.84321C6.59887 4.68852 7.05782 4.63419 7.5126 4.68349L7.49963 4.68141H26.7089C26.8033 4.68141 26.9033 4.68141 27.0052 4.66684C27.137 4.65442 27.2692 4.64748 27.4015 4.64603H27.4311C27.6237 4.64603 27.8089 4.67517 27.9848 4.72928L27.97 4.72512C28.3144 4.85623 28.6144 5.03104 28.883 5.25164L28.8737 5.24332L29.0589 5.37443C29.4922 5.67411 29.9144 5.99461 30.3367 6.31302L30.5256 6.46286C30.7682 6.65849 30.8848 6.74589 31.0107 6.73965C31.4552 6.72925 31.8996 6.72508 32.3441 6.71884V25.7716L32.3682 27.372C31.533 27.9714 30.7626 28.5374 30.5293 28.7539C30.246 29.4037 29.9223 30.0303 29.5607 30.629L29.5922 30.5749C29.4348 30.8537 29.2774 31.1264 29.133 31.4073L25.9311 37.4218C25.783 37.7048 25.6219 37.9858 25.4607 38.2688C25.157 38.8099 24.8515 39.351 24.5996 39.9129C24.4538 40.2492 24.4028 40.6274 24.4533 40.9972L24.4515 40.9868L24.4626 47.4799C24.4083 47.9321 24.2679 48.3659 24.0509 48.7516C23.8339 49.1374 23.5454 49.466 23.2052 49.715L23.1941 49.7234C22.6013 50.323 21.85 50.6877 21.0552 50.7618H20.883C20.2846 50.7565 19.6951 50.5985 19.1589 50.2998L19.1811 50.3123L19.1756 50.3206ZM33.5459 27.9339V0.825073H46.5385C46.8533 0.825073 47.1126 1.09562 47.1422 1.43901V1.44109L49.3978 27.1805L49.4015 27.2471C49.4015 27.337 49.3857 27.4261 49.3551 27.5092C49.3245 27.5922 49.2796 27.6677 49.223 27.7313C49.1665 27.7949 49.0993 27.8453 49.0254 27.8797C48.9515 27.9141 48.8722 27.9318 48.7922 27.9318L33.5459 27.9339ZM40.257 24.2711C40.257 24.6478 40.5293 24.9537 40.8644 24.9537H45.5144C45.5945 24.9537 45.6737 24.936 45.7476 24.9016C45.8215 24.8672 45.8887 24.8168 45.9453 24.7532C46.0018 24.6896 46.0467 24.6141 46.0773 24.531C46.108 24.448 46.1237 24.3589 46.1237 24.269C46.1237 24.1791 46.108 24.0901 46.0773 24.007C46.0467 23.9239 46.0018 23.8485 45.9453 23.7849C45.8887 23.7213 45.8215 23.6709 45.7476 23.6365C45.6737 23.602 45.5945 23.5843 45.5144 23.5843H40.8663C40.7866 23.5841 40.7077 23.6015 40.634 23.6355C40.5603 23.6696 40.4933 23.7197 40.4369 23.7829C40.3805 23.8461 40.3357 23.9213 40.3052 24.004C40.2746 24.0867 40.2589 24.1753 40.2589 24.2649L40.257 24.2711ZM36.7885 24.2711C36.7885 24.6478 37.0607 24.9537 37.3959 24.9537H38.8293C38.9093 24.9537 38.9885 24.936 39.0624 24.9016C39.1363 24.8672 39.2035 24.8168 39.2601 24.7532C39.3167 24.6896 39.3615 24.6141 39.3921 24.531C39.4228 24.448 39.4385 24.3589 39.4385 24.269C39.4385 24.1791 39.4228 24.0901 39.3921 24.007C39.3615 23.9239 39.3167 23.8485 39.2601 23.7849C39.2035 23.7213 39.1363 23.6709 39.0624 23.6365C38.9885 23.602 38.9093 23.5843 38.8293 23.5843H37.3959C37.3164 23.5843 37.2377 23.6019 37.1642 23.6361C37.0907 23.6703 37.024 23.7205 36.9677 23.7837C36.9115 23.8469 36.8669 23.9219 36.8365 24.0044C36.806 24.087 36.7904 24.1755 36.7904 24.2649L36.7885 24.2711ZM35.5033 7.62205C35.4849 7.98939 35.5334 8.35709 35.6458 8.70266C35.7581 9.04823 35.932 9.36442 36.1568 9.63189C36.3816 9.89935 36.6526 10.1125 36.9532 10.2582C37.2538 10.404 37.5777 10.4793 37.9051 10.4796C38.2325 10.4799 38.5565 10.4051 38.8573 10.2599C39.1581 10.1147 39.4293 9.90199 39.6545 9.63492C39.8797 9.36784 40.054 9.05195 40.1669 8.70657C40.2797 8.3612 40.3286 7.99358 40.3107 7.62621C40.2735 6.93898 40.0045 6.29356 39.5585 5.82146C39.1126 5.34936 38.5232 5.08609 37.9106 5.0853C37.2979 5.0845 36.708 5.34624 36.2611 5.81718C35.8142 6.28812 35.5439 6.93283 35.5052 7.61997L35.5033 7.62205ZM36.72 7.62205C36.7201 7.44714 36.7509 7.27397 36.8106 7.11243C36.8703 6.95088 36.9577 6.80413 37.0678 6.68054C37.1779 6.55696 37.3087 6.45897 37.4525 6.39216C37.5963 6.32535 37.7505 6.29103 37.9061 6.29117C38.0618 6.2913 38.2159 6.32589 38.3596 6.39295C38.5033 6.46001 38.6339 6.55824 38.7439 6.68202C38.8539 6.80579 38.9411 6.9527 39.0005 7.11435C39.06 7.276 39.0905 7.44922 39.0904 7.62413C39.078 7.96799 38.9477 8.29313 38.7268 8.53142C38.5059 8.76972 38.2114 8.90266 37.9052 8.90239C37.599 8.90212 37.3048 8.76866 37.0842 8.52998C36.8636 8.2913 36.7319 7.96593 36.72 7.62205Z" fill="black"/>
</g>
<defs>
<clipPath id="clip0_433_140">
<rect width="50" height="49.9472" fill="white" transform="translate(0 0.825073)"/>
</clipPath>
</defs>
</svg>
