<svg width="48" height="50" viewBox="0 0 48 50" fill="none" xmlns="http://www.w3.org/2000/svg">
<path d="M40 5.02417H8C5.8 5.02417 4.02 6.85734 4.02 9.09788L4 45.7612L12 37.6138H40C42.2 37.6138 44 35.7807 44 33.5401V9.09788C44 6.85734 42.2 5.02417 40 5.02417ZM34 29.4664H14C12.9 29.4664 12 28.5498 12 27.4296C12 26.3093 12.9 25.3927 14 25.3927H34C35.1 25.3927 36 26.3093 36 27.4296C36 28.5498 35.1 29.4664 34 29.4664ZM34 23.3559H14C12.9 23.3559 12 22.4393 12 21.319C12 20.1987 12.9 19.2821 14 19.2821H34C35.1 19.2821 36 20.1987 36 21.319C36 22.4393 35.1 23.3559 34 23.3559ZM34 17.2453H14C12.9 17.2453 12 16.3287 12 15.2084C12 14.0882 12.9 13.1716 14 13.1716H34C35.1 13.1716 36 14.0882 36 15.2084C36 16.3287 35.1 17.2453 34 17.2453Z" fill="black"/>
</svg>
