<svg width="31" height="31" viewBox="0 0 31 31" fill="none" xmlns="http://www.w3.org/2000/svg">
<rect width="30.82" height="30.82" fill="black"/>
<path d="M19.9045 17.9784H18.89L18.5305 17.6317C19.333 16.6993 19.9195 15.6011 20.2481 14.4156C20.5767 13.2301 20.6391 11.9867 20.431 10.7742C19.8275 7.20423 16.8482 4.35338 13.2525 3.91677C11.9884 3.75684 10.7045 3.88822 9.49895 4.30085C8.29342 4.71347 7.19826 5.39641 6.29727 6.29739C5.39628 7.19838 4.71335 8.29354 4.30072 9.49907C3.8881 10.7046 3.75672 11.9885 3.91664 13.2527C4.35326 16.8483 7.20411 19.8276 10.7741 20.4311C11.9865 20.6392 13.23 20.5768 14.4155 20.2482C15.601 19.9197 16.6992 19.3331 17.6315 18.5306L17.9783 18.8901V19.9046L23.436 25.3623C23.9625 25.8889 24.8229 25.8889 25.3494 25.3623C25.8759 24.8358 25.8759 23.9754 25.3494 23.4489L19.9045 17.9784ZM12.1995 17.9784C9.00194 17.9784 6.42077 15.3972 6.42077 12.1996C6.42077 9.00206 9.00194 6.42089 12.1995 6.42089C15.3971 6.42089 17.9783 9.00206 17.9783 12.1996C17.9783 15.3972 15.3971 17.9784 12.1995 17.9784Z" fill="white"/>
</svg>
